<svg width="112" height="105" viewBox="0 0 112 105" fill="none" xmlns="http://www.w3.org/2000/svg">
<path d="M2.688 80.216C2.256 80.216 1.936 80.144 1.728 80C1.536 79.872 1.408 79.696 1.344 79.472C1.296 79.248 1.272 79.008 1.272 78.752V64.832C1.272 64.592 1.304 64.368 1.368 64.16C1.432 63.952 1.568 63.784 1.776 63.656C2 63.528 2.328 63.464 2.76 63.464C3.24 63.464 3.568 63.52 3.744 63.632C3.936 63.728 4.112 63.872 4.272 64.064L12.288 75.272V64.832C12.288 64.592 12.32 64.368 12.384 64.16C12.448 63.952 12.584 63.784 12.792 63.656C13 63.528 13.32 63.464 13.752 63.464C14.2 63.464 14.52 63.536 14.712 63.68C14.92 63.808 15.048 63.984 15.096 64.208C15.16 64.432 15.192 64.68 15.192 64.952V78.776C15.192 79.032 15.152 79.272 15.072 79.496C15.008 79.704 14.864 79.872 14.64 80C14.432 80.144 14.104 80.216 13.656 80.216C13.304 80.216 13.024 80.184 12.816 80.12C12.624 80.056 12.448 79.92 12.288 79.712L4.152 68.528V78.776C4.152 79.032 4.12 79.272 4.056 79.496C4.008 79.704 3.88 79.872 3.672 80C3.464 80.144 3.136 80.216 2.688 80.216ZM33.1515 78.2C33.3115 78.504 33.3915 78.776 33.3915 79.016C33.4075 79.24 33.3435 79.44 33.1995 79.616C33.0555 79.776 32.8155 79.944 32.4795 80.12C31.9675 80.36 31.5675 80.424 31.2795 80.312C31.0075 80.2 30.7515 79.888 30.5115 79.376L25.1595 68.072L19.8315 79.376C19.5915 79.872 19.3275 80.168 19.0395 80.264C18.7515 80.376 18.3515 80.32 17.8395 80.096C17.5195 79.936 17.2795 79.768 17.1195 79.592C16.9755 79.416 16.9115 79.208 16.9275 78.968C16.9595 78.712 17.0635 78.408 17.2395 78.056L23.8395 64.304C23.9675 64.048 24.1515 63.848 24.3915 63.704C24.6475 63.544 24.9115 63.464 25.1835 63.464C25.3755 63.464 25.5515 63.496 25.7115 63.56C25.8715 63.624 26.0155 63.72 26.1435 63.848C26.2875 63.976 26.4075 64.136 26.5035 64.328L33.1515 78.2ZM20.8875 75.872L22.0395 73.4H28.3035L29.4555 75.872H20.8875ZM36.5608 80.216C36.1128 80.216 35.7848 80.152 35.5768 80.024C35.3848 79.896 35.2568 79.72 35.1928 79.496C35.1448 79.256 35.1208 79.008 35.1208 78.752V64.904C35.1208 64.648 35.1528 64.416 35.2168 64.208C35.2808 63.984 35.4088 63.808 35.6008 63.68C35.8088 63.536 36.1368 63.464 36.5848 63.464H41.7208C42.4568 63.464 43.1528 63.584 43.8088 63.824C44.4808 64.048 45.0808 64.4 45.6088 64.88C46.1368 65.344 46.5528 65.936 46.8568 66.656C47.1768 67.36 47.3368 68.184 47.3368 69.128C47.3368 69.752 47.2408 70.376 47.0488 71C46.8568 71.608 46.5688 72.176 46.1848 72.704C45.8168 73.216 45.3448 73.656 44.7688 74.024C44.1928 74.392 43.5128 74.632 42.7288 74.744H38.0248V78.776C38.0248 79.032 37.9928 79.272 37.9288 79.496C37.8808 79.72 37.7528 79.896 37.5448 80.024C37.3528 80.152 37.0248 80.216 36.5608 80.216ZM46.7848 79.856C46.3208 80.176 45.9368 80.296 45.6328 80.216C45.3448 80.136 45.0568 79.88 44.7688 79.448L40.7368 73.352L43.9768 72.92L47.1688 77.768C47.3928 78.088 47.5288 78.36 47.5768 78.584C47.6248 78.808 47.5848 79.016 47.4568 79.208C47.3288 79.4 47.1048 79.616 46.7848 79.856ZM38.0248 71.864H42.0808C42.3688 71.864 42.6488 71.816 42.9208 71.72C43.2088 71.608 43.4648 71.44 43.6888 71.216C43.9128 70.976 44.0888 70.688 44.2168 70.352C44.3608 70 44.4328 69.584 44.4328 69.104C44.4328 68.528 44.3208 68.04 44.0968 67.64C43.8728 67.224 43.5528 66.912 43.1368 66.704C42.7368 66.48 42.2488 66.368 41.6728 66.368H38.0248V71.864ZM64.5812 78.2C64.7412 78.504 64.8212 78.776 64.8212 79.016C64.8372 79.24 64.7732 79.44 64.6292 79.616C64.4852 79.776 64.2452 79.944 63.9092 80.12C63.3972 80.36 62.9972 80.424 62.7092 80.312C62.4372 80.2 62.1812 79.888 61.9412 79.376L56.5892 68.072L51.2612 79.376C51.0212 79.872 50.7572 80.168 50.4692 80.264C50.1812 80.376 49.7812 80.32 49.2692 80.096C48.9492 79.936 48.7092 79.768 48.5492 79.592C48.4052 79.416 48.3412 79.208 48.3572 78.968C48.3892 78.712 48.4932 78.408 48.6692 78.056L55.2692 64.304C55.3972 64.048 55.5812 63.848 55.8212 63.704C56.0772 63.544 56.3412 63.464 56.6132 63.464C56.8052 63.464 56.9812 63.496 57.1412 63.56C57.3012 63.624 57.4452 63.72 57.5732 63.848C57.7172 63.976 57.8372 64.136 57.9332 64.328L64.5812 78.2ZM52.3172 75.872L53.4692 73.4H59.7332L60.8852 75.872H52.3172ZM67.7505 80.216C67.3185 80.216 66.9985 80.144 66.7905 80C66.5985 79.872 66.4705 79.696 66.4065 79.472C66.3585 79.248 66.3345 79.008 66.3345 78.752V64.832C66.3345 64.592 66.3665 64.368 66.4305 64.16C66.4945 63.952 66.6305 63.784 66.8385 63.656C67.0625 63.528 67.3905 63.464 67.8225 63.464C68.3025 63.464 68.6305 63.52 68.8065 63.632C68.9985 63.728 69.1745 63.872 69.3345 64.064L77.3505 75.272V64.832C77.3505 64.592 77.3825 64.368 77.4465 64.16C77.5105 63.952 77.6465 63.784 77.8545 63.656C78.0625 63.528 78.3825 63.464 78.8145 63.464C79.2625 63.464 79.5825 63.536 79.7745 63.68C79.9825 63.808 80.1105 63.984 80.1585 64.208C80.2225 64.432 80.2545 64.68 80.2545 64.952V78.776C80.2545 79.032 80.2145 79.272 80.1345 79.496C80.0705 79.704 79.9265 79.872 79.7025 80C79.4945 80.144 79.1665 80.216 78.7185 80.216C78.3665 80.216 78.0865 80.184 77.8785 80.12C77.6865 80.056 77.5105 79.92 77.3505 79.712L69.2145 68.528V78.776C69.2145 79.032 69.1825 79.272 69.1185 79.496C69.0705 79.704 68.9425 79.872 68.7345 80C68.5265 80.144 68.1985 80.216 67.7505 80.216ZM87.534 80.36C86.99 80.36 86.478 80.288 85.998 80.144C85.534 80.016 85.118 79.848 84.75 79.64C84.382 79.432 84.062 79.232 83.79 79.04C83.534 78.832 83.342 78.664 83.214 78.536C83.038 78.344 82.878 78.16 82.734 77.984C82.606 77.808 82.542 77.624 82.542 77.432C82.542 77.256 82.59 77.08 82.686 76.904C82.798 76.712 82.942 76.528 83.118 76.352C83.326 76.128 83.51 75.976 83.67 75.896C83.83 75.8 83.998 75.752 84.174 75.752C84.414 75.752 84.622 75.84 84.798 76.016C84.99 76.176 85.214 76.376 85.47 76.616C85.598 76.712 85.766 76.832 85.974 76.976C86.182 77.104 86.422 77.216 86.694 77.312C86.982 77.408 87.294 77.456 87.63 77.456C88.078 77.456 88.462 77.384 88.782 77.24C89.118 77.08 89.39 76.856 89.598 76.568C89.822 76.28 89.982 75.944 90.078 75.56C90.19 75.16 90.246 74.728 90.246 74.264V65.096C90.246 64.808 90.278 64.536 90.342 64.28C90.406 64.024 90.542 63.824 90.75 63.68C90.958 63.536 91.294 63.464 91.758 63.464C92.19 63.464 92.502 63.536 92.694 63.68C92.902 63.808 93.03 63.984 93.078 64.208C93.142 64.432 93.174 64.68 93.174 64.952V74.432C93.174 75.28 93.038 76.064 92.766 76.784C92.51 77.504 92.134 78.136 91.638 78.68C91.158 79.208 90.566 79.624 89.862 79.928C89.174 80.216 88.398 80.36 87.534 80.36ZM110.823 78.2C110.983 78.504 111.063 78.776 111.063 79.016C111.079 79.24 111.015 79.44 110.871 79.616C110.727 79.776 110.487 79.944 110.151 80.12C109.639 80.36 109.239 80.424 108.951 80.312C108.679 80.2 108.423 79.888 108.183 79.376L102.831 68.072L97.5034 79.376C97.2634 79.872 96.9994 80.168 96.7114 80.264C96.4234 80.376 96.0234 80.32 95.5114 80.096C95.1914 79.936 94.9514 79.768 94.7914 79.592C94.6474 79.416 94.5834 79.208 94.5994 78.968C94.6314 78.712 94.7354 78.408 94.9114 78.056L101.511 64.304C101.639 64.048 101.823 63.848 102.063 63.704C102.319 63.544 102.583 63.464 102.855 63.464C103.047 63.464 103.223 63.496 103.383 63.56C103.543 63.624 103.687 63.72 103.815 63.848C103.959 63.976 104.079 64.136 104.175 64.328L110.823 78.2ZM98.5594 75.872L99.7114 73.4H105.975L107.127 75.872H98.5594Z" fill="#FC7400"/>
<path d="M28.336 101.304C27.856 101.304 27.4187 101.245 27.024 101.128C26.64 101.011 26.2987 100.861 26 100.68C25.712 100.499 25.4667 100.312 25.264 100.12C25.0613 99.928 24.912 99.752 24.816 99.592C24.6773 99.4 24.5867 99.2293 24.544 99.08C24.5013 98.9307 24.512 98.7867 24.576 98.648C24.6507 98.4987 24.784 98.344 24.976 98.184C25.168 98.0133 25.344 97.928 25.504 97.928C25.6747 97.9173 25.8347 97.9653 25.984 98.072C26.144 98.1787 26.2987 98.328 26.448 98.52C26.704 98.8613 26.992 99.1067 27.312 99.256C27.632 99.3947 27.952 99.464 28.272 99.464C28.688 99.464 29.0507 99.4107 29.36 99.304C29.6693 99.1867 29.9093 99.016 30.08 98.792C30.2613 98.568 30.352 98.28 30.352 97.928C30.352 97.64 30.2613 97.4053 30.08 97.224C29.9093 97.032 29.68 96.872 29.392 96.744C29.104 96.6053 28.7787 96.4827 28.416 96.376C28.064 96.2587 27.7067 96.1307 27.344 95.992C27.088 95.9067 26.832 95.8053 26.576 95.688C26.32 95.56 26.08 95.416 25.856 95.256C25.6427 95.096 25.4507 94.9093 25.28 94.696C25.12 94.472 24.992 94.216 24.896 93.928C24.8 93.64 24.752 93.304 24.752 92.92C24.752 92.312 24.9013 91.7787 25.2 91.32C25.4987 90.8507 25.9147 90.4827 26.448 90.216C26.9813 89.9387 27.5893 89.8 28.272 89.8C28.7093 89.8 29.0987 89.8427 29.44 89.928C29.792 90.0027 30.0907 90.104 30.336 90.232C30.592 90.3493 30.8 90.472 30.96 90.6C31.1307 90.7173 31.2533 90.8187 31.328 90.904C31.5733 91.1493 31.7067 91.3573 31.728 91.528C31.76 91.688 31.664 91.9067 31.44 92.184C31.216 92.472 30.9973 92.632 30.784 92.664C30.5813 92.6853 30.352 92.6 30.096 92.408C29.9253 92.2267 29.7547 92.0827 29.584 91.976C29.4133 91.8587 29.2213 91.7733 29.008 91.72C28.8053 91.6667 28.5547 91.64 28.256 91.64C28.0427 91.64 27.8347 91.672 27.632 91.736C27.44 91.7893 27.2747 91.8747 27.136 91.992C26.9973 92.0987 26.8853 92.232 26.8 92.392C26.7253 92.552 26.688 92.7333 26.688 92.936C26.688 93.2133 26.7627 93.4427 26.912 93.624C27.072 93.7947 27.2853 93.9387 27.552 94.056C27.8187 94.1627 28.1173 94.264 28.448 94.36C28.7787 94.456 29.1147 94.5573 29.456 94.664C29.808 94.7813 30.1547 94.92 30.496 95.08C30.8373 95.24 31.1413 95.4427 31.408 95.688C31.6747 95.9227 31.888 96.2213 32.048 96.584C32.208 96.936 32.288 97.368 32.288 97.88C32.288 98.4667 32.176 98.9787 31.952 99.416C31.728 99.8533 31.424 100.211 31.04 100.488C30.656 100.765 30.2293 100.968 29.76 101.096C29.2907 101.235 28.816 101.304 28.336 101.304ZM41.184 89.96C41.344 89.96 41.4827 89.976 41.6 90.008C41.728 90.04 41.8293 90.12 41.904 90.248C41.9787 90.3653 42.016 90.5573 42.016 90.824C42.016 91.0907 41.9787 91.288 41.904 91.416C41.8293 91.5333 41.728 91.608 41.6 91.64C41.472 91.6613 41.328 91.672 41.168 91.672H38.224V100.2C38.224 100.381 38.2027 100.547 38.16 100.696C38.128 100.835 38.0427 100.947 37.904 101.032C37.776 101.117 37.5573 101.16 37.248 101.16C36.96 101.16 36.7467 101.112 36.608 101.016C36.4693 100.931 36.384 100.819 36.352 100.68C36.32 100.531 36.304 100.365 36.304 100.184V91.672H33.328C33.1787 91.672 33.04 91.656 32.912 91.624C32.784 91.592 32.6773 91.5173 32.592 91.4C32.5173 91.2827 32.48 91.0907 32.48 90.824C32.48 90.5573 32.5173 90.3653 32.592 90.248C32.6667 90.12 32.768 90.04 32.896 90.008C33.0347 89.976 33.1787 89.96 33.328 89.96H41.184ZM48.084 101.24C47.3373 101.24 46.6707 101.107 46.084 100.84C45.508 100.563 45.0227 100.184 44.628 99.704C44.2333 99.2133 43.9347 98.6587 43.732 98.04C43.5293 97.4107 43.428 96.744 43.428 96.04V90.936C43.428 90.7547 43.444 90.5947 43.476 90.456C43.5187 90.3067 43.604 90.1893 43.732 90.104C43.8707 90.008 44.0947 89.96 44.404 89.96C44.7133 89.96 44.932 90.008 45.06 90.104C45.1987 90.1893 45.284 90.3067 45.316 90.456C45.3587 90.5947 45.38 90.76 45.38 90.952V96.04C45.38 96.6267 45.476 97.1707 45.668 97.672C45.8707 98.1627 46.1747 98.5573 46.58 98.856C46.9853 99.1547 47.5027 99.304 48.132 99.304C48.6973 99.304 49.1827 99.1707 49.588 98.904C49.9933 98.6373 50.3027 98.2587 50.516 97.768C50.74 97.2773 50.852 96.696 50.852 96.024V90.856C50.852 90.6853 50.868 90.536 50.9 90.408C50.9427 90.28 51.0333 90.1733 51.172 90.088C51.3107 90.0027 51.5293 89.96 51.828 89.96C52.1373 89.96 52.356 90.008 52.484 90.104C52.6227 90.1893 52.708 90.3067 52.74 90.456C52.772 90.6053 52.788 90.7707 52.788 90.952V96.072C52.788 96.776 52.6867 97.4427 52.484 98.072C52.2813 98.6907 51.9773 99.24 51.572 99.72C51.1667 100.189 50.6707 100.563 50.084 100.84C49.508 101.107 48.8413 101.24 48.084 101.24ZM55.5268 101.144C55.2494 101.144 55.0414 101.096 54.9028 101C54.7641 100.915 54.6734 100.797 54.6308 100.648C54.5881 100.499 54.5668 100.339 54.5668 100.168V90.92C54.5668 90.7493 54.5828 90.5947 54.6148 90.456C54.6574 90.3067 54.7481 90.1893 54.8868 90.104C55.0254 90.008 55.2441 89.96 55.5428 89.96L58.5508 89.976C59.3294 89.976 60.0441 90.1093 60.6948 90.376C61.3561 90.6427 61.9268 91.0213 62.4068 91.512C62.8868 92.0027 63.2548 92.5893 63.5108 93.272C63.7774 93.944 63.9108 94.6853 63.9108 95.496C63.9108 96.328 63.7774 97.0907 63.5108 97.784C63.2441 98.4773 62.8708 99.0747 62.3908 99.576C61.9108 100.077 61.3401 100.467 60.6788 100.744C60.0281 101.011 59.3028 101.144 58.5028 101.144H55.5268ZM56.5028 99.208H58.5508C59.2334 99.208 59.8308 99.0587 60.3428 98.76C60.8548 98.4507 61.2494 98.024 61.5268 97.48C61.8148 96.936 61.9588 96.3013 61.9588 95.576C61.9588 94.84 61.8148 94.2 61.5268 93.656C61.2494 93.1013 60.8494 92.6747 60.3268 92.376C59.8148 92.0667 59.2174 91.912 58.5348 91.912H56.5028V99.208ZM66.3858 101.16C66.0871 101.16 65.8684 101.112 65.7298 101.016C65.5911 100.931 65.5058 100.813 65.4738 100.664C65.4418 100.515 65.4258 100.349 65.4258 100.168V90.936C65.4258 90.7653 65.4418 90.6053 65.4738 90.456C65.5164 90.3067 65.6018 90.1893 65.7298 90.104C65.8684 90.0187 66.0924 89.976 66.4018 89.976C66.7004 89.976 66.9138 90.0187 67.0418 90.104C67.1804 90.1893 67.2658 90.3067 67.2978 90.456C67.3404 90.6053 67.3618 90.7707 67.3618 90.952V100.184C67.3618 100.365 67.3404 100.531 67.2978 100.68C67.2658 100.819 67.1804 100.931 67.0418 101.016C66.9031 101.112 66.6844 101.16 66.3858 101.16ZM74.0759 101.288C73.3079 101.288 72.5879 101.144 71.9159 100.856C71.2545 100.557 70.6679 100.152 70.1559 99.64C69.6439 99.1173 69.2439 98.52 68.9559 97.848C68.6679 97.1653 68.5239 96.4347 68.5239 95.656C68.5239 94.856 68.6625 94.1093 68.9399 93.416C69.2279 92.712 69.6172 92.0987 70.1079 91.576C70.6092 91.0427 71.1852 90.6267 71.8359 90.328C72.4865 90.0293 73.1852 89.88 73.9319 89.88C74.7105 89.88 75.4305 90.0293 76.0919 90.328C76.7639 90.616 77.3505 91.0213 77.8519 91.544C78.3532 92.0667 78.7479 92.6747 79.0359 93.368C79.3239 94.0507 79.4679 94.792 79.4679 95.592C79.4679 96.3707 79.3292 97.1067 79.0519 97.8C78.7745 98.4827 78.3852 99.0907 77.8839 99.624C77.3825 100.147 76.8065 100.557 76.1559 100.856C75.5159 101.144 74.8225 101.288 74.0759 101.288ZM73.9959 99.336C74.4865 99.336 74.9452 99.24 75.3719 99.048C75.7985 98.856 76.1719 98.5893 76.4919 98.248C76.8225 97.9067 77.0785 97.512 77.2599 97.064C77.4412 96.6053 77.5319 96.1147 77.5319 95.592C77.5319 95.0693 77.4359 94.584 77.2439 94.136C77.0625 93.6773 76.8065 93.2773 76.4759 92.936C76.1559 92.584 75.7825 92.312 75.3559 92.12C74.9399 91.928 74.4865 91.832 73.9959 91.832C73.5159 91.832 73.0625 91.928 72.6359 92.12C72.2092 92.312 71.8305 92.584 71.4999 92.936C71.1799 93.2773 70.9292 93.6773 70.7479 94.136C70.5665 94.5947 70.4759 95.08 70.4759 95.592C70.4759 96.104 70.5665 96.5893 70.7479 97.048C70.9399 97.5067 71.1959 97.9067 71.5159 98.248C71.8359 98.5893 72.2039 98.856 72.6199 99.048C73.0465 99.24 73.5052 99.336 73.9959 99.336ZM84.1485 101.304C83.6685 101.304 83.2312 101.245 82.8365 101.128C82.4525 101.011 82.1112 100.861 81.8125 100.68C81.5245 100.499 81.2792 100.312 81.0765 100.12C80.8738 99.928 80.7245 99.752 80.6285 99.592C80.4898 99.4 80.3992 99.2293 80.3565 99.08C80.3138 98.9307 80.3245 98.7867 80.3885 98.648C80.4632 98.4987 80.5965 98.344 80.7885 98.184C80.9805 98.0133 81.1565 97.928 81.3165 97.928C81.4872 97.9173 81.6472 97.9653 81.7965 98.072C81.9565 98.1787 82.1112 98.328 82.2605 98.52C82.5165 98.8613 82.8045 99.1067 83.1245 99.256C83.4445 99.3947 83.7645 99.464 84.0845 99.464C84.5005 99.464 84.8632 99.4107 85.1725 99.304C85.4818 99.1867 85.7218 99.016 85.8925 98.792C86.0738 98.568 86.1645 98.28 86.1645 97.928C86.1645 97.64 86.0738 97.4053 85.8925 97.224C85.7218 97.032 85.4925 96.872 85.2045 96.744C84.9165 96.6053 84.5912 96.4827 84.2285 96.376C83.8765 96.2587 83.5192 96.1307 83.1565 95.992C82.9005 95.9067 82.6445 95.8053 82.3885 95.688C82.1325 95.56 81.8925 95.416 81.6685 95.256C81.4552 95.096 81.2632 94.9093 81.0925 94.696C80.9325 94.472 80.8045 94.216 80.7085 93.928C80.6125 93.64 80.5645 93.304 80.5645 92.92C80.5645 92.312 80.7138 91.7787 81.0125 91.32C81.3112 90.8507 81.7272 90.4827 82.2605 90.216C82.7938 89.9387 83.4018 89.8 84.0845 89.8C84.5218 89.8 84.9112 89.8427 85.2525 89.928C85.6045 90.0027 85.9032 90.104 86.1485 90.232C86.4045 90.3493 86.6125 90.472 86.7725 90.6C86.9432 90.7173 87.0658 90.8187 87.1405 90.904C87.3858 91.1493 87.5192 91.3573 87.5405 91.528C87.5725 91.688 87.4765 91.9067 87.2525 92.184C87.0285 92.472 86.8098 92.632 86.5965 92.664C86.3938 92.6853 86.1645 92.6 85.9085 92.408C85.7378 92.2267 85.5672 92.0827 85.3965 91.976C85.2258 91.8587 85.0338 91.7733 84.8205 91.72C84.6178 91.6667 84.3672 91.64 84.0685 91.64C83.8552 91.64 83.6472 91.672 83.4445 91.736C83.2525 91.7893 83.0872 91.8747 82.9485 91.992C82.8098 92.0987 82.6978 92.232 82.6125 92.392C82.5378 92.552 82.5005 92.7333 82.5005 92.936C82.5005 93.2133 82.5752 93.4427 82.7245 93.624C82.8845 93.7947 83.0978 93.9387 83.3645 94.056C83.6312 94.1627 83.9298 94.264 84.2605 94.36C84.5912 94.456 84.9272 94.5573 85.2685 94.664C85.6205 94.7813 85.9672 94.92 86.3085 95.08C86.6498 95.24 86.9538 95.4427 87.2205 95.688C87.4872 95.9227 87.7005 96.2213 87.8605 96.584C88.0205 96.936 88.1005 97.368 88.1005 97.88C88.1005 98.4667 87.9885 98.9787 87.7645 99.416C87.5405 99.8533 87.2365 100.211 86.8525 100.488C86.4685 100.765 86.0418 100.968 85.5725 101.096C85.1032 101.235 84.6285 101.304 84.1485 101.304Z" fill="#2B3630"/>
<g clip-path="url(#clip0_1_23)">
<path d="M71.9351 20.9741C70.5735 18.8602 68.7983 17.0371 66.7139 15.612C64.6296 14.1869 62.2782 13.1886 59.7981 12.6758C57.3181 12.163 54.7593 12.1461 52.2726 12.626C49.7858 13.106 47.4211 14.0732 45.3177 15.4707C43.2144 16.8681 41.4147 18.6676 40.0247 20.7633C38.6347 22.859 37.6824 25.2086 37.2238 27.6738C36.7652 30.139 36.8096 32.6701 37.3544 35.118C37.8992 37.566 38.9333 39.8815 40.396 41.9282L71.9351 20.9741Z" fill="#FC7400"/>
<path d="M42.3947 44.3234C45.4981 47.4695 49.6178 49.4401 54.0377 49.8928C58.4575 50.3455 62.8979 49.2517 66.587 46.8013C70.2761 44.351 72.9807 40.6992 74.2305 36.4807C75.4803 32.2622 75.1963 27.7438 73.428 23.7109L42.3947 44.3234Z" fill="#FC7400"/>
<path d="M58.6963 11.5199C58.6963 11.5199 59.3016 -0.657093 74.5755 0.028114C72.3007 14.3933 58.6963 11.5199 58.6963 11.5199Z" fill="#2B3630"/>
</g>
<defs>
<clipPath id="clip0_1_23">
<rect width="38" height="50" fill="white" transform="translate(37)"/>
</clipPath>
</defs>
</svg>
